PathFileType	4	(X/Y/Z)	Run_200 02
DataRate	CameraRate	NumFrames	NumMarkers	Units	OrigDataRate	OrigDataStartFrame	OrigNumFrames
100	100	6	42	mm	100	13	128
Frame#	Time	RASI			LPSI			RPSI			RTH1			RTH2			RTH3			LTH1			LTH2			LTH3			RTB1			RTB2			RTB3			LTB1			LTB2			LTB3			RCAL			RTOE			RMT5			LCAL			LTOE			LMT5			LACR			RACR			C7			RUA1			RUA2			RUA3			RLEL			RMEL			LUA2			LUA3			LLEL			LMEL			RFAsuperior			RFAradius			RFAulna			LFAsuperior			LFAradius			LFAulna			LUA1			CLAV			LASI		
		X1	Y1	Z1	X2	Y2	Z2	X3	Y3	Z3	X4	Y4	Z4	X5	Y5	Z5	X6	Y6	Z6	X7	Y7	Z7	X8	Y8	Z8	X9	Y9	Z9	X10	Y10	Z10	X11	Y11	Z11	X12	Y12	Z12	X13	Y13	Z13	X14	Y14	Z14	X15	Y15	Z15	X16	Y16	Z16	X17	Y17	Z17	X18	Y18	Z18	X19	Y19	Z19	X20	Y20	Z20	X21	Y21	Z21	X22	Y22	Z22	X23	Y23	Z23	X24	Y24	Z24	X25	Y25	Z25	X26	Y26	Z26	X27	Y27	Z27	X28	Y28	Z28	X29	Y29	Z29	X30	Y30	Z30	X31	Y31	Z31	X32	Y32	Z32	X33	Y33	Z33	X34	Y34	Z34	X35	Y35	Z35	X36	Y36	Z36	X37	Y37	Z37	X38	Y38	Z38	X39	Y39	Z39	X40	Y40	Z40	X41	Y41	Z41	X42	Y42	Z42	

13	  0.130000	1204.412926	1000.848664	-192.935460	1041.331800	1026.383181	-383.509906	1033.102721	1030.440934	-290.346120	1191.103056	835.052203	-135.762808	1251.925454	746.959801	-143.884483	1229.899740	603.418002	-169.509481	1157.030317	818.823805	-501.749221	1216.939933	693.472010	-473.373640	1143.451627	575.272863	-470.187217	1281.267026	345.576676	-247.018200	1212.969297	254.096957	-205.017867	1215.020500	181.983080	-270.751907	1021.867565	348.519639	-405.353809	956.089557	351.937021	-454.130222	889.562012	303.343035	-403.391891	1073.308777	102.437710	-275.129960	1309.413551	 75.437995	-278.592542	1288.865277	 56.102211	-202.546588	729.652895	357.172236	-402.130686	793.711412	125.787085	-370.977903	773.036831	140.224235	-459.678434	1223.433865	1512.766101	-471.404860	1206.151816	1474.354262	-125.227531	1151.131209	1529.401339	-302.373241	1129.294714	1348.100207	-50.218360	1059.794444	1351.868380	-52.919659	1062.188063	1278.687779	-39.040560	1015.635572	1213.013773	-23.963136	978.484467	1222.522286	-110.425900	1069.299829	1375.562577	-545.484706	1094.566514	1300.426451	-583.318774	1066.708274	1237.588147	-600.844176	1021.856960	1231.586694	-520.390681	1100.138482	1199.436347	-43.406512	1244.490444	1193.156194	-136.218284	1228.502562	1125.814059	-116.329522	1141.580028	1195.573684	-575.837268	1279.002413	1166.519580	-460.676493	1261.708997	1099.879958	-482.943775	1156.614871	1410.884016	-553.940138	1260.410803	1433.232262	-269.097054	1218.092247	984.263330	-449.885003	
14	  0.140000	1203.665685	996.977355	-193.250876	1038.884304	1021.552820	-382.687554	1031.083689	1026.685556	-289.063905	1189.417797	830.676196	-135.092999	1248.528024	741.354981	-143.433227	1224.583328	597.598749	-169.809834	1156.257822	814.301281	-501.681188	1223.212907	690.923792	-473.971799	1153.932321	571.666423	-471.326519	1271.157275	339.716847	-245.766050	1199.318316	251.158190	-204.688406	1198.350704	179.648699	-270.656621	1037.202401	346.033117	-406.093528	971.638396	349.869129	-455.113281	904.605281	302.249358	-404.563013	1053.770227	103.132888	-275.047950	1289.761261	 74.649788	-278.651408	1269.046868	 55.640288	-202.385934	743.425071	356.945971	-404.240876	809.735207	126.499383	-370.925835	789.644277	140.086818	-459.904228	1220.364250	1506.783408	-471.518988	1208.191268	1467.360154	-124.245609	1151.932762	1524.905299	-301.030661	1136.555296	1334.953572	-51.572116	1066.717767	1337.316110	-49.519423	1070.584433	1264.373594	-39.618250	1026.882865	1197.939674	-24.042575	987.592289	1206.634816	-109.262220	1062.442950	1370.728089	-539.694793	1085.461975	1294.138685	-576.769870	1056.161468	1232.240384	-594.229030	1015.327596	1225.674587	-511.951569	1111.649297	1187.088342	-45.219944	1254.083691	1180.426186	-138.641314	1239.073897	1112.788304	-118.454719	1130.960015	1188.016897	-571.610692	1270.918213	1147.023946	-466.018086	1249.524971	1082.478199	-491.340641	1150.603501	1404.347706	-551.755429	1261.194463	1426.987739	-269.646159	1214.526718	979.198251	-451.717199	
15	  0.150000	1203.001184	993.479042	-193.617817	1036.519336	1017.626461	-381.594646	1029.759169	1023.413252	-288.199883	1187.356698	826.804952	-134.467020	1245.004182	736.229712	-142.940607	1218.816700	592.610024	-169.875799	1154.993917	810.345293	-501.539716	1229.487673	689.304069	-474.697818	1164.809583	568.659880	-472.580606	1260.354005	334.451423	-245.164586	1185.325576	248.539623	-204.364607	1181.476614	177.620310	-270.601722	1052.899534	343.983193	-407.176535	987.545634	348.100576	-456.052186	920.284926	300.842495	-405.647131	1034.198461	103.882022	-274.892700	1270.067627	 73.924746	-278.606795	1249.204764	 55.428615	-202.224877	757.587988	355.553113	-406.269356	827.334910	126.461760	-370.536693	807.349255	138.913706	-459.743379	1216.521050	1501.728946	-471.627755	1210.564688	1461.109415	-123.429457	1152.350511	1520.619387	-299.635239	1143.764801	1323.835193	-53.233751	1073.809457	1324.503445	-47.264450	1079.133627	1251.773042	-40.658708	1038.123421	1184.502528	-24.803015	996.316497	1192.425100	-108.701392	1055.455883	1366.658265	-534.203502	1076.568348	1288.998649	-570.577684	1045.828990	1228.138021	-587.994130	1008.204224	1220.992465	-504.007888	1123.172499	1176.101945	-47.750964	1263.840240	1169.593243	-141.753146	1249.598489	1101.689554	-120.976096	1120.698431	1181.560451	-568.422976	1262.054973	1129.674313	-471.053287	1236.741118	1067.259953	-498.987129	1143.978981	1398.838982	-549.560247	1261.889645	1421.791440	-270.233579	1211.207785	974.712286	-453.379216	
16	  0.160000	1202.436276	990.551562	-193.967236	1034.361155	1015.036498	-380.218032	1029.147777	1020.966971	-287.645197	1184.865774	823.653363	-134.000310	1241.254134	731.874742	-142.467512	1212.447026	588.719963	-169.601260	1153.199952	807.340374	-501.371957	1235.616487	689.151531	-475.650293	1176.041843	566.631276	-473.882726	1248.428785	330.041409	-245.466456	1170.814148	246.317332	-204.109328	1164.253380	176.075985	-270.740172	1069.082831	342.770463	-408.514808	1003.895939	346.740106	-456.855941	936.809069	299.036302	-406.527963	1014.562200	104.696404	-274.660836	1250.293127	 73.300301	-278.433303	1229.304430	 55.449348	-202.044150	772.216056	352.350156	-408.069657	847.326504	125.349479	-369.709225	826.937350	136.319476	-459.088864	1211.681349	1498.126014	-471.701886	1213.536127	1456.110941	-122.861859	1152.332638	1516.906316	-298.128699	1150.676553	1315.742788	-55.110861	1080.889786	1314.406748	-46.561259	1087.689920	1241.835846	-42.345598	1049.015345	1173.649068	-26.543619	1004.525089	1181.040727	-109.144364	1048.130062	1363.998157	-529.043222	1067.601622	1285.831736	-565.128447	1035.407237	1226.023390	-582.455996	1000.085469	1218.404492	-496.941406	1134.307251	1167.146848	-51.051888	1273.570498	1162.109109	-145.556957	1259.940758	1093.941238	-124.113085	1110.142805	1176.706003	-566.598480	1252.072137	1116.240551	-475.951803	1223.134868	1055.960648	-505.553823	1136.417013	1395.158197	-547.404045	1262.447071	1418.148593	-270.903053	1208.392990	971.251220	-454.608651	
17	  0.170000	1201.923989	988.189163	-194.148315	1032.555416	1013.721181	-378.826010	1028.680641	1019.524538	-286.955333	1182.172078	821.172175	-133.816560	1237.188542	728.323750	-142.178576	1205.546004	585.653334	-169.037999	1151.395473	805.507791	-501.313581	1241.360133	690.543925	-476.866378	1187.201252	565.857127	-475.128791	1235.286675	326.359320	-246.307293	1155.754199	244.373677	-203.967427	1146.616854	174.952969	-271.014764	1085.643707	342.648028	-409.673007	1020.512008	345.710729	-457.418994	953.994837	296.951019	-407.089463	994.844079	105.570123	-274.381274	1230.400277	 72.774804	-278.193538	1209.304716	 55.470711	-201.820004	787.129735	347.267102	-409.419715	869.709283	123.290279	-368.598131	848.752897	132.588302	-458.085197	1206.238856	1496.036767	-471.675212	1217.193509	1452.613742	-122.575428	1152.147198	1514.199752	-296.507393	1157.011116	1310.566128	-56.857898	1087.540981	1307.171847	-47.033911	1095.845370	1234.704891	-44.498763	1059.005135	1165.588775	-29.099997	1012.378371	1172.920789	-110.688974	1040.260513	1363.268332	-523.999539	1057.915150	1285.067426	-560.699293	1024.185924	1226.130419	-577.780117	990.976156	1218.338195	-490.941745	1144.418807	1160.484568	-54.588039	1282.767132	1158.762278	-149.563488	1269.962626	1090.292678	-127.840308	1098.070650	1173.695863	-565.790704	1241.128406	1107.918777	-481.169067	1208.903627	1049.592745	-511.178699	1127.972692	1393.739472	-545.358336	1262.871065	1415.965146	-271.722679	1206.274796	969.054896	-455.173724	
18	  0.180000	1201.415783	986.313115	-194.077303	1031.212617	1013.456315	-377.752888	1027.910677	1019.133450	-285.978216	1179.472683	819.277142	-133.918146	1232.750519	725.456716	-142.212535	1198.156795	583.071041	-168.327228	1150.306475	804.987652	-501.450493	1246.570535	693.295806	-478.306378	1197.835306	566.670537	-476.352347	1221.096428	323.156791	-246.992946	1140.164059	242.654934	-203.872614	1128.616642	174.029690	-270.969570	1102.375412	343.556313	-410.280356	1037.145076	344.902002	-457.686199	971.629544	294.709338	-407.267066	975.098796	106.527033	-274.079222	1210.414988	 72.317680	-277.975619	1189.221857	 55.329423	-201.556028	802.174523	340.506571	-410.085970	894.093975	120.565378	-367.463194	872.678225	128.203693	-456.936644	1200.797874	1495.308444	-471.490334	1221.374629	1450.721202	-122.628122	1152.083294	1512.774987	-294.879457	1162.743589	1307.760957	-58.306309	1093.499136	1302.584759	-48.050172	1103.225353	1230.213186	-46.720300	1067.750865	1160.221736	-32.042836	1020.116092	1167.939243	-113.120162	1031.855797	1364.833412	-518.845874	1047.119285	1286.871176	-557.295408	1011.724435	1228.529607	-573.934630	981.266589	1220.896629	-486.002192	1153.158643	1156.570076	-57.866546	1290.953664	1159.657040	-153.518858	1279.603481	1090.885498	-131.970723	1084.079339	1173.184908	-565.506260	1229.647817	1105.193205	-486.850907	1194.514991	1048.310734	-516.082956	1118.968682	1394.634581	-543.430973	1263.220027	1414.922560	-272.792654	1204.882436	968.127839	-455.097758	
